<svg width="10" height="18" viewBox="0 0 10 18" fill="none" xmlns="http://www.w3.org/2000/svg">
<path fill-rule="evenodd" clip-rule="evenodd" d="M0.720011 9.53003C0.579561 9.38941 0.500671 9.19878 0.500671 9.00003C0.500671 8.80128 0.579561 8.61066 0.720011 8.47003L8.22001 0.970032C8.28867 0.896345 8.37147 0.837243 8.46347 0.796251C8.55547 0.755259 8.65479 0.733217 8.75549 0.73144C8.85619 0.729663 8.95622 0.748188 9.04961 0.785909C9.143 0.82363 9.22783 0.879774 9.29905 0.950993C9.37027 1.02221 9.42641 1.10705 9.46413 1.20043C9.50185 1.29382 9.52038 1.39385 9.5186 1.49455C9.51683 1.59526 9.49478 1.69457 9.45379 1.78657C9.4128 1.87857 9.3537 1.96137 9.28001 2.03003L2.31001 9.00003L9.28001 15.97C9.3537 16.0387 9.4128 16.1215 9.45379 16.2135C9.49478 16.3055 9.51683 16.4048 9.5186 16.5055C9.52038 16.6062 9.50185 16.7062 9.46413 16.7996C9.42641 16.893 9.37027 16.9779 9.29905 17.0491C9.22783 17.1203 9.143 17.1764 9.04961 17.2142C8.95622 17.2519 8.85619 17.2704 8.75549 17.2686C8.65479 17.2668 8.55547 17.2448 8.46347 17.2038C8.37147 17.1628 8.28867 17.1037 8.22001 17.03L0.720011 9.53003Z" fill="#079211"/>
</svg>
