<svg width="10" height="18" viewBox="0 0 10 18" fill="none" xmlns="http://www.w3.org/2000/svg">
<path fill-rule="evenodd" clip-rule="evenodd" d="M9.28003 8.46997C9.42048 8.61059 9.49937 8.80122 9.49937 8.99997C9.49937 9.19872 9.42048 9.38934 9.28003 9.52997L1.78003 17.03C1.63785 17.1625 1.44981 17.2346 1.25551 17.2311C1.06121 17.2277 0.875821 17.149 0.738408 17.0116C0.600995 16.8742 0.522283 16.6888 0.518855 16.4945C0.515426 16.3002 0.587549 16.1121 0.720029 15.97L7.69003 8.99997L0.720029 2.02997C0.587549 1.88779 0.515426 1.69975 0.518855 1.50545C0.522283 1.31114 0.600995 1.12576 0.738408 0.988347C0.875821 0.850934 1.06121 0.772222 1.25551 0.768794C1.44981 0.765365 1.63785 0.837489 1.78003 0.969969L9.28003 8.46997Z" fill="#079211"/>
</svg>
